<svg width="270" height="270" viewBox="0 0 270 270" fill="none" xmlns="http://www.w3.org/2000/svg">
<g opacity="0.3">
<path d="M170.66 90.6001C170.935 90.6001 171.16 91.0488 171.16 91.5973L171.16 229.603C171.16 230.151 170.935 230.6 170.66 230.6C170.385 230.6 170.16 230.151 170.16 229.603L170.16 91.5973C170.16 91.0488 170.385 90.6001 170.66 90.6001Z" fill="white"/>
<path d="M40.1525 213.6L198.158 213.6C198.709 213.6 199.16 213.825 199.16 214.1C199.16 214.375 198.709 214.6 198.158 214.6L40.1625 214.6C39.6112 214.6 39.1602 214.375 39.1602 214.1C39.1602 213.825 39.6112 213.6 40.1625 213.6L40.1525 213.6Z" fill="white"/>
<path d="M76.6602 119.6C76.9352 119.6 77.1602 120.049 77.1602 120.599L77.1602 229.602C77.1602 230.151 76.9352 230.6 76.6602 230.6C76.3851 230.6 76.1601 230.151 76.1601 229.602L76.1602 120.599C76.1602 120.049 76.3852 119.6 76.6602 119.6Z" fill="white"/>
<path d="M138.66 90.6001C138.935 90.6001 139.16 91.0488 139.16 91.5973L139.16 229.603C139.16 230.151 138.935 230.6 138.66 230.6C138.385 230.6 138.16 230.151 138.16 229.603L138.16 91.5973C138.16 91.0488 138.385 90.6001 138.66 90.6001Z" fill="white"/>
<path d="M106.66 119.6C106.935 119.6 107.16 120.049 107.16 120.599L107.16 229.602C107.16 230.151 106.935 230.6 106.66 230.6C106.385 230.6 106.16 230.151 106.16 229.602L106.16 120.599C106.16 120.049 106.385 119.6 106.66 119.6Z" fill="white"/>
<path d="M40.1525 176.6L198.158 176.6C198.709 176.6 199.16 176.825 199.16 177.1C199.16 177.375 198.709 177.6 198.158 177.6L40.1625 177.6C39.6112 177.6 39.1602 177.375 39.1602 177.1C39.1602 176.825 39.6112 176.6 40.1625 176.6L40.1525 176.6Z" fill="white"/>
<path d="M40.161 140.6L230.159 140.6C230.71 140.6 231.16 140.825 231.16 141.1C231.16 141.375 230.71 141.6 230.159 141.6L40.161 141.6C39.6105 141.6 39.1602 141.375 39.1602 141.1C39.1602 140.825 39.6106 140.6 40.161 140.6Z" fill="white"/>
<path d="M121.159 104.6L198.161 104.6C198.711 104.6 199.16 104.825 199.16 105.1C199.16 105.375 198.711 105.6 198.161 105.6L121.159 105.6C120.61 105.6 120.16 105.375 120.16 105.1C120.16 104.825 120.61 104.6 121.159 104.6Z" fill="white"/>
</g>
<path d="M56.6932 195.353L62 193.504L56.4922 191.582C55.5193 191.245 54.7554 190.481 54.4177 189.508L52.504 184L50.5823 189.508C50.2446 190.481 49.4807 191.245 48.5078 191.582L43 193.504L48.3068 195.353C49.4084 195.739 50.2687 196.6 50.6466 197.693L52.496 203L54.3453 197.693C54.7313 196.592 55.5916 195.731 56.6851 195.353H56.6932Z" fill="#56FFF9"/>
<g clip-path="url(#clip0_2076_1329)">
<path d="M46.0764 157.393L16.8014 139.011L32.1995 124.371L46.0764 157.393Z" fill="url(#paint0_linear_2076_1329)" fill-opacity="0.92"/>
<path d="M16.8019 139.001L18.2445 122.03L32.1995 124.371L16.8019 139.001Z" fill="#0042FF"/>
</g>
<g clip-path="url(#clip1_2076_1329)">
<path d="M213 146.742L229.171 102.274L253.37 117.25L213 146.742Z" fill="url(#paint1_linear_2076_1329)" fill-opacity="0.92"/>
<path d="M229.171 102.274L252.447 98.2817L253.38 117.251L229.171 102.274Z" fill="#0042FF"/>
</g>
<path d="M195.738 114.536L203 112.006L195.463 109.376C194.132 108.914 193.086 107.868 192.624 106.537L190.006 99L187.376 106.537C186.914 107.868 185.868 108.914 184.537 109.376L177 112.006L184.262 114.536C185.769 115.064 186.947 116.242 187.464 117.738L189.994 125L192.525 117.738C193.053 116.231 194.231 115.053 195.727 114.536H195.738Z" fill="url(#paint2_linear_2076_1329)"/>
<g clip-path="url(#clip2_2076_1329)">
<path d="M105.146 123.545H164.859C172.364 123.545 178.46 129.641 178.46 137.146V196.859C178.46 204.364 172.364 210.46 164.859 210.46H105.146C97.6411 210.46 91.5449 204.364 91.5449 196.859V137.146C91.5449 129.641 97.6411 123.545 105.146 123.545Z" fill="white"/>
<path d="M169.355 139.466V194.534C169.355 198.299 166.299 201.355 162.534 201.355H107.466C103.701 201.355 100.645 198.299 100.645 194.534V139.466C100.645 135.701 103.701 132.645 107.466 132.645H162.534C166.299 132.645 169.355 135.701 169.355 139.466Z" stroke="#9DBFF3" stroke-width="1.03588" stroke-linecap="round" stroke-linejoin="round"/>
<path d="M165.76 194.705V139.296C165.76 137.608 164.392 136.24 162.705 136.24H107.295C105.608 136.24 104.24 137.608 104.24 139.296V194.705C104.24 196.392 105.608 197.761 107.295 197.761H162.705C164.392 197.761 165.76 196.392 165.76 194.705Z" fill="#0042FF"/>
<path d="M125.05 172.728H117.131L115.66 176.369H110.253L118.519 157.641H123.735L132.032 176.369H126.521L125.05 172.728ZM123.497 168.818L121.088 162.825L118.68 168.818H123.497Z" fill="#4DD7CB"/>
<path d="M150.414 164.566C150.414 168.818 147.203 171.47 142.091 171.47H138.828V176.364H133.529V157.636H142.091C147.203 157.636 150.414 160.282 150.414 164.566ZM145.058 164.566C145.058 162.825 143.96 161.81 141.764 161.81H138.822V167.295H141.764C143.96 167.295 145.058 166.28 145.058 164.566Z" fill="#4DD7CB"/>
<path d="M152.978 157.636H158.276V176.364H152.978V157.636Z" fill="#4DD7CB"/>
<path d="M114.422 112H109.844V123.545H114.422V112Z" fill="#0042FF"/>
<path d="M123.569 112H118.99V123.545H123.569V112Z" fill="#0042FF"/>
<path d="M132.716 112H128.137V123.545H132.716V112Z" fill="#0042FF"/>
<path d="M141.863 112H137.284V123.545H141.863V112Z" fill="#0042FF"/>
<path d="M151.009 112H146.431V123.545H151.009V112Z" fill="#0042FF"/>
<path d="M160.156 112H155.578V123.545H160.156V112Z" fill="#0042FF"/>
<path d="M114.422 210.455H109.844V222H114.422V210.455Z" fill="#0042FF"/>
<path d="M123.569 210.455H118.99V222H123.569V210.455Z" fill="#0042FF"/>
<path d="M132.716 210.455H128.137V222H132.716V210.455Z" fill="#0042FF"/>
<path d="M141.863 210.455H137.284V222H141.863V210.455Z" fill="#0042FF"/>
<path d="M151.009 210.455H146.431V222H151.009V210.455Z" fill="#0042FF"/>
<path d="M160.156 210.455H155.578V222H160.156V210.455Z" fill="#0042FF"/>
<path d="M80 187.578V192.157H91.5449V187.578H80Z" fill="white"/>
<path d="M80 178.431V183.01H91.5449V178.431H80Z" fill="white"/>
<path d="M80 169.284V173.863H91.5449V169.284H80Z" fill="white"/>
<path d="M80 160.138V164.716H91.5449V160.138H80Z" fill="white"/>
<path d="M80 150.991V155.569H91.5449V150.991H80Z" fill="white"/>
<path d="M80 141.844V146.422H91.5449V141.844H80Z" fill="white"/>
<path d="M178.46 187.583V192.162H190.005V187.583H178.46Z" fill="white"/>
<path d="M178.46 178.436V183.015H190.005V178.436H178.46Z" fill="white"/>
<path d="M178.46 169.289V173.868H190.005V169.289H178.46Z" fill="white"/>
<path d="M178.46 160.143V164.721H190.005V160.143H178.46Z" fill="white"/>
<path d="M178.46 150.996V155.574H190.005V150.996H178.46Z" fill="white"/>
<path d="M178.46 141.849V146.427H190.005V141.849H178.46Z" fill="white"/>
</g>
<path d="M95.71 81H61.74C54.1516 81 48 87.1516 48 94.74V94.75C48 102.338 54.1516 108.49 61.74 108.49H95.71C103.298 108.49 109.45 102.338 109.45 94.75V94.74C109.45 87.1516 103.298 81 95.71 81Z" fill="white"/>
<path d="M73.5101 92.7002L66.7701 95.1702L73.5101 97.6202V100.15L63.8701 96.4902V93.8602L73.5101 90.2002V92.7102V92.7002Z" fill="#4DD7CB"/>
<path d="M80.7601 85.21H83.5701L76.8901 104.28H74.0801L80.7601 85.21Z" fill="#4DD7CB"/>
<path d="M93.5802 93.8599V96.4899L83.9402 100.15V97.6199L90.6802 95.1699L83.9402 92.6999V90.1899L93.5802 93.8499V93.8599Z" fill="#4DD7CB"/>
<path d="M165.7 65.48H131.74C124.15 65.48 118 59.33 118 51.74C118 44.15 124.15 38 131.74 38H165.7C173.29 38 179.44 44.15 179.44 51.74C179.44 59.33 173.29 65.48 165.7 65.48Z" fill="white"/>
<path d="M137.29 46.7197V56.7497H134.45V52.8397H130.58V56.7497H127.74V46.7197H130.58V50.4897H134.45V46.7197H137.29Z" fill="#4DD7CB"/>
<path d="M141.44 48.9697H138.36V46.7197H147.35V48.9697H144.28V56.7497H141.44V48.9697Z" fill="#4DD7CB"/>
<path d="M157.46 56.75L157.43 51.4299L154.85 55.7599H153.59L151.02 51.5699V56.74H148.4V46.71H150.74L154.27 52.5L157.71 46.71H160.05L160.08 56.74H157.47L157.46 56.75Z" fill="#4DD7CB"/>
<path d="M162.07 46.7197H164.91V54.4997H169.7V56.7497H162.07V46.7197Z" fill="#4DD7CB"/>
<defs>
<linearGradient id="paint0_linear_2076_1329" x1="46.2421" y1="153.887" x2="32.195" y2="132.2" gradientUnits="userSpaceOnUse">
<stop stop-color="#54FFF9"/>
<stop offset="1" stop-color="#1D57FD"/>
</linearGradient>
<linearGradient id="paint1_linear_2076_1329" x1="230.057" y1="149.747" x2="235.59" y2="118.347" gradientUnits="userSpaceOnUse">
<stop stop-color="#54FFF9"/>
<stop offset="1" stop-color="#1D57FD"/>
</linearGradient>
<linearGradient id="paint2_linear_2076_1329" x1="190" y1="99" x2="190" y2="125" gradientUnits="userSpaceOnUse">
<stop stop-color="white" stop-opacity="0"/>
<stop offset="1" stop-color="#56FFF9"/>
</linearGradient>
<clipPath id="clip0_2076_1329">
<rect width="34.01" height="30.11" fill="white" transform="translate(47.6816 123.421) rotate(92.7052)"/>
</clipPath>
<clipPath id="clip1_2076_1329">
<rect width="54.57" height="34.65" fill="white" transform="translate(213 146.742) rotate(-80.0078)"/>
</clipPath>
<clipPath id="clip2_2076_1329">
<rect width="110" height="110" fill="white" transform="translate(80 112)"/>
</clipPath>
</defs>
</svg>
