<svg width="270" height="251" viewBox="0 0 270 251" fill="none" xmlns="http://www.w3.org/2000/svg">
<g opacity="0.3">
<path d="M170.66 89C170.935 89 171.16 89.4487 171.16 89.9972L171.16 228.003C171.16 228.551 170.935 229 170.66 229C170.385 229 170.16 228.551 170.16 228.003L170.16 89.9972C170.16 89.4487 170.385 89 170.66 89Z" fill="white"/>
<path d="M40.1525 212L198.158 212C198.709 212 199.16 212.225 199.16 212.5C199.16 212.775 198.709 213 198.158 213L40.1625 213C39.6112 213 39.1602 212.775 39.1602 212.5C39.1602 212.225 39.6112 212 40.1625 212L40.1525 212Z" fill="white"/>
<path d="M76.6602 118C76.9352 118 77.1602 118.449 77.1602 118.998L77.1602 228.002C77.1602 228.551 76.9352 229 76.6602 229C76.3851 229 76.1601 228.551 76.1601 228.002L76.1602 118.998C76.1602 118.449 76.3852 118 76.6602 118Z" fill="white"/>
<path d="M138.66 89C138.935 89 139.16 89.4487 139.16 89.9972L139.16 228.003C139.16 228.551 138.935 229 138.66 229C138.385 229 138.16 228.551 138.16 228.003L138.16 89.9972C138.16 89.4487 138.385 89 138.66 89Z" fill="white"/>
<path d="M106.66 118C106.935 118 107.16 118.449 107.16 118.998L107.16 228.002C107.16 228.551 106.935 229 106.66 229C106.385 229 106.16 228.551 106.16 228.002L106.16 118.998C106.16 118.449 106.385 118 106.66 118Z" fill="white"/>
<path d="M40.1525 175L198.158 175C198.709 175 199.16 175.225 199.16 175.5C199.16 175.775 198.709 176 198.158 176L40.1625 176C39.6112 176 39.1602 175.775 39.1602 175.5C39.1602 175.225 39.6112 175 40.1625 175L40.1525 175Z" fill="white"/>
<path d="M40.161 139L230.159 139C230.71 139 231.16 139.225 231.16 139.5C231.16 139.775 230.71 140 230.159 140L40.161 140C39.6105 140 39.1602 139.775 39.1602 139.5C39.1602 139.225 39.6106 139 40.161 139Z" fill="white"/>
<path d="M121.159 103L198.161 103C198.711 103 199.16 103.225 199.16 103.5C199.16 103.775 198.711 104 198.161 104L121.159 104C120.61 104 120.16 103.775 120.16 103.5C120.16 103.225 120.61 103 121.159 103Z" fill="white"/>
</g>
<g clip-path="url(#clip0_2429_847)">
<path d="M53.0099 203L36.0299 233.11L20.6799 218.42L53.0099 203Z" fill="url(#paint0_linear_2429_847)" fill-opacity="0.92"/>
<path d="M36.02 233.11L19 232.47L20.68 218.42L36.02 233.11Z" fill="#0042FF"/>
</g>
<g clip-path="url(#clip1_2429_847)">
<path d="M52.4028 128.843C49.73 139.562 38.8757 146.081 28.1572 143.408C17.4497 140.735 10.9251 129.881 13.598 119.168C16.2708 108.45 27.1251 101.925 37.8381 104.598C48.5565 107.271 55.0756 118.125 52.4028 128.843Z" fill="#4DD7CB"/>
<path d="M41.8197 121.156C42.2162 118.494 40.1899 117.065 37.4193 116.109L38.3157 112.502L36.1209 111.953L35.2463 115.462C34.6704 115.321 34.0783 115.185 33.4861 115.05L34.3662 111.518L32.1714 110.97L31.2696 114.572C30.7915 114.463 30.3243 114.354 29.868 114.24V114.229L26.8421 113.474L26.2608 115.816C26.2608 115.816 27.8906 116.19 27.8525 116.212C28.7435 116.435 28.901 117.022 28.8739 117.489L27.8471 121.612L26.4129 127.365C26.3042 127.637 26.0272 128.039 25.4079 127.887C25.4296 127.919 23.8107 127.49 23.8107 127.49L22.7188 130.005L25.5763 130.717C26.1087 130.853 26.6302 130.989 27.1409 131.119L26.2336 134.764L28.4284 135.313L29.3302 131.706C29.9278 131.869 30.5091 132.021 31.0795 132.162L30.1831 135.753L32.3779 136.302L33.2851 132.662C37.0281 133.368 39.8422 133.086 41.0265 129.701C41.9826 126.974 40.9776 125.404 39.011 124.377C40.4452 124.046 41.5263 123.101 41.8142 121.156H41.8197ZM36.8054 128.186C36.1263 130.913 31.5358 129.44 30.0473 129.066L31.2533 124.236C32.7418 124.605 37.5116 125.344 36.8054 128.186ZM37.4845 121.112C36.8652 123.59 33.0461 122.329 31.8074 122.025L32.8994 117.641C34.138 117.951 38.1309 118.526 37.4845 121.112Z" fill="white"/>
</g>
<path d="M250.738 126.536L258 124.006L250.463 121.376C249.132 120.914 248.086 119.868 247.624 118.537L245.006 111L242.376 118.537C241.914 119.868 240.868 120.914 239.537 121.376L232 124.006L239.262 126.536C240.769 127.064 241.947 128.242 242.464 129.738L244.994 137L247.525 129.738C248.053 128.231 249.231 127.053 250.727 126.536H250.738Z" fill="url(#paint1_linear_2429_847)"/>
<g clip-path="url(#clip2_2429_847)">
<path d="M135.035 126.818L119.755 135.635L104.372 126.818L119.651 118L135.035 126.818Z" fill="#0042FF"/>
<path d="M135.035 126.817L134.989 144.705L119.698 153.522L119.756 135.635L135.035 126.817Z" fill="#022B66"/>
<path d="M119.755 135.635V153.522L104.372 144.705V126.817L119.755 135.635Z" fill="#003AE0"/>
<path d="M119.674 153.396L104.383 162.214L89 153.396L104.291 144.579L119.674 153.396Z" fill="white"/>
<path d="M119.675 153.396L119.617 171.284L104.337 180.101L104.384 162.214L119.675 153.396Z" fill="#BCCAF3"/>
<path d="M104.383 162.214V180.101L89 171.284V153.396L104.383 162.214Z" fill="#D7E2FF"/>
<path d="M150.372 153.511L135.092 162.328L119.709 153.511L134.988 144.705L150.372 153.511Z" fill="white"/>
<path d="M150.372 153.511L150.326 171.398L135.035 180.216L135.092 162.328L150.372 153.511Z" fill="#BCCAF3"/>
<path d="M135.092 162.328V180.216L119.709 171.398V153.511L135.092 162.328Z" fill="#D7E2FF"/>
<path d="M134.896 179.585L119.605 188.403L104.222 179.585L119.513 170.768L134.896 179.585Z" fill="white"/>
<path d="M134.896 179.585L134.838 197.473L119.559 206.29L119.605 188.403L134.896 179.585Z" fill="#BCCAF3"/>
<path d="M119.605 188.403V206.29L104.222 197.473V179.585L119.605 188.403Z" fill="#D7E2FF"/>
<path d="M165.177 179.585L149.886 188.403L134.503 179.585L149.794 170.768L165.177 179.585Z" fill="white"/>
<path d="M165.178 179.585L165.12 197.473L149.84 206.29L149.887 188.403L165.178 179.585Z" fill="#BCCAF3"/>
<path d="M149.886 188.403V206.29L134.503 197.473V179.585L149.886 188.403Z" fill="#D7E2FF"/>
<path d="M181 153.511L165.709 162.328L150.326 153.511L165.617 144.705L181 153.511Z" fill="white"/>
<path d="M181 153.511L180.954 171.398L165.663 180.216L165.709 162.328L181 153.511Z" fill="#BCCAF3"/>
<path d="M165.709 162.328V180.216L150.326 171.398V153.511L165.709 162.328Z" fill="#D7E2FF"/>
<path d="M165.663 126.818L150.372 135.624L134.988 126.818L150.279 118L165.663 126.818Z" fill="white"/>
<path d="M165.663 126.817L165.617 144.705L150.326 153.511L150.372 135.623L165.663 126.817Z" fill="#BCCAF3"/>
<path d="M150.372 135.623V153.511L134.988 144.705V126.817L150.372 135.623Z" fill="#D7E2FF"/>
</g>
<path d="M13.6932 183.353L19 181.504L13.4922 179.582C12.5193 179.245 11.7554 178.481 11.4177 177.508L9.50402 172L7.58231 177.508C7.24461 178.481 6.48074 179.245 5.50783 179.582L0 181.504L5.30681 183.353C6.40838 183.739 7.26873 184.6 7.64664 185.693L9.49598 191L11.3453 185.693C11.7313 184.592 12.5916 183.731 13.6851 183.353H13.6932Z" fill="#56FFF9"/>
<g clip-path="url(#clip3_2429_847)">
<path d="M200 156L246.6 164.21L236.05 190.64L200 156Z" fill="url(#paint2_linear_2429_847)" fill-opacity="0.92"/>
<path d="M246.6 164.21L254.57 186.44L236.05 190.65L246.6 164.21Z" fill="#0042FF"/>
</g>
<g clip-path="url(#clip4_2429_847)">
<path d="M212.046 98.5656C221.194 94.6749 225.456 84.1048 221.566 74.9567C217.675 65.8085 207.105 61.5465 197.957 65.4372C188.809 69.3279 184.547 79.898 188.437 89.0461C192.328 98.1942 202.898 102.456 212.046 98.5656Z" fill="#4DD7CB"/>
<path d="M205.562 68.5024V78.4802L213.995 82.2493L205.562 68.5024Z" fill="white" fill-opacity="0.5"/>
<path d="M205.562 68.5024L197.125 82.2493L205.562 78.4802V68.5024Z" fill="white"/>
<path d="M205.562 88.7173V95.4978L214 83.8188L205.562 88.7173Z" fill="#9BE9E2"/>
<path d="M205.562 95.4973V88.7168L197.125 83.8232L205.562 95.5022V95.4973Z" fill="white"/>
<path d="M205.562 87.1432L213.995 82.2447L205.562 78.4805V87.1432Z" fill="white" fill-opacity="0.2"/>
<path d="M197.125 82.2491L205.562 87.1475V78.4849L197.125 82.2491Z" fill="#A2F3EC"/>
</g>
<g clip-path="url(#clip5_2429_847)">
<path d="M107 86C119.15 86 129 76.1503 129 64C129 51.8497 119.15 42 107 42C94.8497 42 85 51.8497 85 64C85 76.1503 94.8497 86 107 86Z" fill="#5DF7EA"/>
<path d="M98.9335 68.9307C99.0769 68.7874 99.2758 68.7041 99.4886 68.7041H118.558C118.905 68.7041 119.081 69.125 118.836 69.3701L115.071 73.135C114.927 73.2784 114.728 73.3616 114.516 73.3616H95.4415C95.0946 73.3616 94.9189 72.9408 95.164 72.6956L98.9289 68.9307H98.9335Z" fill="white"/>
<path d="M98.9335 54.8658C99.0815 54.7224 99.2804 54.6392 99.4886 54.6392H118.558C118.905 54.6392 119.081 55.0601 118.836 55.3052L115.071 59.0701C114.927 59.2135 114.728 59.2967 114.516 59.2967H95.4415C95.0946 59.2967 94.9189 58.8758 95.164 58.6307L98.9289 54.8658H98.9335Z" fill="white"/>
<path d="M115.066 61.8541C114.923 61.7107 114.724 61.6274 114.511 61.6274H95.4415C95.0946 61.6274 94.9189 62.0483 95.164 62.2935L98.9289 66.0584C99.0723 66.2017 99.2712 66.285 99.4839 66.285H118.554C118.9 66.285 119.076 65.8641 118.831 65.619L115.066 61.8541Z" fill="white"/>
</g>
<defs>
<linearGradient id="paint0_linear_2429_847" x1="49.5" y1="203" x2="28.5" y2="218.055" gradientUnits="userSpaceOnUse">
<stop stop-color="#54FFF9"/>
<stop offset="1" stop-color="#1D57FD"/>
</linearGradient>
<linearGradient id="paint1_linear_2429_847" x1="245" y1="111" x2="245" y2="137" gradientUnits="userSpaceOnUse">
<stop stop-color="white" stop-opacity="0"/>
<stop offset="1" stop-color="#56FFF9"/>
</linearGradient>
<linearGradient id="paint2_linear_2429_847" x1="200" y1="173.32" x2="231.884" y2="173.32" gradientUnits="userSpaceOnUse">
<stop stop-color="#54FFF9"/>
<stop offset="1" stop-color="#1D57FD"/>
</linearGradient>
<clipPath id="clip0_2429_847">
<rect width="34.01" height="30.11" fill="white" transform="translate(19 203)"/>
</clipPath>
<clipPath id="clip1_2429_847">
<rect width="40" height="40.0054" fill="white" transform="translate(13 104)"/>
</clipPath>
<clipPath id="clip2_2429_847">
<rect width="92" height="88.2903" fill="white" transform="translate(89 118)"/>
</clipPath>
<clipPath id="clip3_2429_847">
<rect width="54.57" height="34.65" fill="white" transform="translate(200 156)"/>
</clipPath>
<clipPath id="clip4_2429_847">
<rect width="36" height="36" fill="white" transform="translate(187 64)"/>
</clipPath>
<clipPath id="clip5_2429_847">
<rect width="44" height="44" fill="white" transform="translate(85 42)"/>
</clipPath>
</defs>
</svg>
