<svg width="270" height="270" viewBox="0 0 270 270" fill="none" xmlns="http://www.w3.org/2000/svg">
<g opacity="0.3">
<path d="M99.5 100C99.225 100 99 100.449 99 100.997L99 239.003C99 239.551 99.225 240 99.5 240C99.775 240 100 239.551 100 239.003L100 100.997C100 100.449 99.775 100 99.5 100Z" fill="white"/>
<path d="M230.008 223L72.0024 223C71.4511 223 71 223.225 71 223.5C71 223.775 71.4511 224 72.0024 224L229.998 224C230.549 224 231 223.775 231 223.5C231 223.225 230.549 223 229.998 223L230.008 223Z" fill="white"/>
<path d="M193.5 129C193.225 129 193 129.449 193 129.998L193 239.002C193 239.551 193.225 240 193.5 240C193.775 240 194 239.551 194 239.002L194 129.998C194 129.449 193.775 129 193.5 129Z" fill="white"/>
<path d="M131.5 100C131.225 100 131 100.449 131 100.997L131 239.003C131 239.551 131.225 240 131.5 240C131.775 240 132 239.551 132 239.003L132 100.997C132 100.449 131.775 100 131.5 100Z" fill="white"/>
<path d="M163.5 129C163.225 129 163 129.449 163 129.998L163 239.002C163 239.551 163.225 240 163.5 240C163.775 240 164 239.551 164 239.002L164 129.998C164 129.449 163.775 129 163.5 129Z" fill="white"/>
<path d="M230.008 186L72.0024 186C71.4511 186 71 186.225 71 186.5C71 186.775 71.4511 187 72.0024 187L229.998 187C230.549 187 231 186.775 231 186.5C231 186.225 230.549 186 229.998 186L230.008 186Z" fill="white"/>
<path d="M229.999 150L40.0008 150C39.4504 150 39 150.225 39 150.5C39 150.775 39.4504 151 40.0008 151L229.999 151C230.55 151 231 150.775 231 150.5C231 150.225 230.55 150 229.999 150Z" fill="white"/>
<path d="M149.001 114L71.9991 114C71.4496 114 71 114.225 71 114.5C71 114.775 71.4496 115 71.9991 115L149.001 115C149.55 115 150 114.775 150 114.5C150 114.225 149.55 114 149.001 114Z" fill="white"/>
</g>
<g clip-path="url(#clip0_2068_1919)">
<path d="M76.4525 216.875L56.256 250.194L37.9983 233.939L76.4525 216.875Z" fill="url(#paint0_linear_2068_1919)" fill-opacity="0.92"/>
<path d="M56.2441 250.194L36 249.486L37.9982 233.938L56.2441 250.194Z" fill="#0042FF"/>
</g>
<path d="M67.7496 188.496L74.0616 186.449L67.5105 184.323C66.3533 183.949 65.4447 183.104 65.043 182.027L62.7669 175.933L60.4811 182.027C60.0795 183.104 59.1709 183.949 58.0137 184.323L51.4625 186.449L57.7746 188.496C59.0848 188.923 60.1081 189.875 60.5576 191.085L62.7573 196.957L64.957 191.085C65.416 189.866 66.4393 188.914 67.74 188.496H67.7496Z" fill="#56FFF9"/>
<path d="M244.71 152.192L253.348 149.391L244.383 146.481C242.8 145.97 241.556 144.813 241.007 143.34L237.892 135L234.764 143.34C234.214 144.813 232.971 145.97 231.388 146.481L222.423 149.391L231.06 152.192C232.853 152.776 234.254 154.079 234.869 155.735L237.879 163.77L240.889 155.735C241.517 154.067 242.917 152.764 244.697 152.192H244.71Z" fill="url(#paint1_linear_2068_1919)"/>
<g clip-path="url(#clip1_2068_1919)">
<path d="M193 172L239.6 180.21L229.05 206.64L193 172Z" fill="url(#paint2_linear_2068_1919)" fill-opacity="0.92"/>
<path d="M239.6 180.21L247.57 202.44L229.05 206.65L239.6 180.21Z" fill="#0042FF"/>
</g>
<g clip-path="url(#clip2_2068_1919)">
<path d="M178.8 195.264H88.8V229.468H178.8V195.264Z" fill="#6E80DB"/>
<path d="M133.8 238.075C158.653 238.075 178.8 234.219 178.8 229.462C178.8 224.706 158.653 220.85 133.8 220.85C108.947 220.85 88.8 224.706 88.8 229.462C88.8 234.219 108.947 238.075 133.8 238.075Z" fill="#6E80DB"/>
<path d="M133.8 203.876C158.653 203.876 178.8 200.02 178.8 195.264C178.8 190.507 158.653 186.651 133.8 186.651C108.947 186.651 88.8 190.507 88.8 195.264C88.8 200.02 108.947 203.876 133.8 203.876Z" fill="#A0B2F2"/>
<path d="M175.092 162.625H92.5022V192.758H175.092V162.625Z" fill="#465DAF"/>
<path d="M133.8 200.344C156.608 200.344 175.098 196.948 175.098 192.758C175.098 188.569 156.608 185.172 133.8 185.172C110.992 185.172 92.5022 188.569 92.5022 192.758C92.5022 196.948 110.992 200.344 133.8 200.344Z" fill="#465DAF"/>
<path d="M178.8 151.613H88.8V185.818H178.8V151.613Z" fill="#6E80DB"/>
<path d="M133.8 194.431C158.653 194.431 178.8 190.575 178.8 185.818C178.8 181.061 158.653 177.205 133.8 177.205C108.947 177.205 88.8 181.061 88.8 185.818C88.8 190.575 108.947 194.431 133.8 194.431Z" fill="#6E80DB"/>
<path d="M133.8 160.226C158.653 160.226 178.8 156.369 178.8 151.613C178.8 146.856 158.653 143 133.8 143C108.947 143 88.8 146.856 88.8 151.613C88.8 156.369 108.947 160.226 133.8 160.226Z" fill="#D7E2FF"/>
<path d="M133.8 158.213C152.84 158.213 168.275 155.258 168.275 151.613C168.275 147.968 152.84 145.013 133.8 145.013C114.76 145.013 99.3254 147.968 99.3254 151.613C99.3254 155.258 114.76 158.213 133.8 158.213Z" fill="#A0B2F2"/>
<path d="M115.09 176.6C115.09 178.167 113.823 179.434 112.256 179.434C110.69 179.434 109.423 178.167 109.423 176.6C109.423 175.034 110.69 173.767 112.256 173.767C113.823 173.767 115.09 175.034 115.09 176.6Z" fill="#2B417F"/>
<path d="M129.253 176.6C129.253 178.167 127.986 179.434 126.419 179.434C124.853 179.434 123.586 178.167 123.586 176.6C123.586 175.034 124.853 173.767 126.419 173.767C127.986 173.767 129.253 175.034 129.253 176.6Z" fill="#4DD7CB"/>
<path d="M140.582 179.434C142.147 179.434 143.416 178.165 143.416 176.6C143.416 175.035 142.147 173.767 140.582 173.767C139.017 173.767 137.749 175.035 137.749 176.6C137.749 178.165 139.017 179.434 140.582 179.434Z" fill="#465DAF"/>
<path d="M151.671 173.767H163.798C165.054 173.767 166.074 174.787 166.074 176.043V177.158C166.074 178.413 165.054 179.434 163.798 179.434H151.671C150.415 179.434 149.395 178.413 149.395 177.158V176.043C149.395 174.787 150.415 173.767 151.671 173.767Z" fill="#465DAF"/>
<path d="M115.09 220.849C115.09 222.416 113.823 223.683 112.256 223.683C110.69 223.683 109.423 222.416 109.423 220.849C109.423 219.283 110.69 218.016 112.256 218.016C113.823 218.016 115.09 219.283 115.09 220.849Z" fill="#465DAF"/>
<path d="M129.253 220.849C129.253 222.416 127.986 223.683 126.419 223.683C124.853 223.683 123.586 222.416 123.586 220.849C123.586 219.283 124.853 218.016 126.419 218.016C127.986 218.016 129.253 219.283 129.253 220.849Z" fill="white"/>
<path d="M140.582 223.683C142.147 223.683 143.416 222.414 143.416 220.849C143.416 219.284 142.147 218.016 140.582 218.016C139.017 218.016 137.749 219.284 137.749 220.849C137.749 222.414 139.017 223.683 140.582 223.683Z" fill="#4DD7CB"/>
<path d="M151.671 218.016H163.798C165.054 218.016 166.074 219.036 166.074 220.292V221.407C166.074 222.662 165.054 223.683 163.798 223.683H151.671C150.415 223.683 149.395 222.662 149.395 221.407V220.292C149.395 219.036 150.415 218.016 151.671 218.016Z" fill="#2B417F"/>
<path d="M169.985 54C182.012 56.8338 195.812 62.0954 202.92 72.7938C214.08 91.1723 193.357 105.665 177.886 111.074C150.905 120.738 116.197 120.378 89.9077 108.72C77.8431 103.431 62.9908 91.4677 68.6308 76.6615C73.8277 63.9231 89.1047 57.7846 101.474 54.5631C93.9231 57.1938 86.6123 60.5815 80.3077 65.4738C60.8216 81.1477 72.4985 97.1354 91.5047 105.102C115.302 114.932 144.102 115.625 168.96 109.477C214.283 97.4215 214.246 68.2892 169.975 54H169.985Z" fill="url(#paint3_linear_2068_1919)"/>
<path d="M169.985 28C182.012 30.8338 195.812 36.0954 202.92 46.7938C214.08 65.1723 193.357 79.6646 177.886 85.0738C150.905 94.7385 116.197 94.3785 89.9077 82.72C77.8431 77.4308 62.9908 65.4677 68.6308 50.6615C73.8277 37.9138 89.1047 31.7846 101.474 28.5631C93.9231 31.1938 86.6123 34.5815 80.3077 39.4738C60.8216 55.1477 72.5077 71.1354 91.5139 79.1108C115.311 88.9415 144.111 89.6339 168.969 83.4862C214.292 71.4308 214.255 42.2985 169.985 28.0092V28Z" fill="url(#paint4_linear_2068_1919)"/>
<path d="M169.985 79.5112C182.012 82.3451 195.812 87.6066 202.92 98.3051C214.08 116.684 193.357 131.176 177.886 136.585C150.905 146.25 116.197 145.89 89.9077 134.231C77.8431 128.942 62.9908 116.979 68.6308 102.173C73.8277 89.4343 89.1047 83.2958 101.474 80.0743C93.9231 82.7051 86.6123 86.0928 80.3077 90.9851C60.8216 106.659 72.4985 122.647 91.5047 130.613C115.302 140.444 144.102 141.136 168.96 134.988C214.283 122.933 214.246 93.8005 169.975 79.5112H169.985Z" fill="url(#paint5_linear_2068_1919)"/>
<line x1="136" y1="34" x2="136" y2="159" stroke="#4DD7CB" stroke-width="2" stroke-linecap="round" stroke-dasharray="12 16"/>
<path d="M160 61L160 136" stroke="#4DD7CB" stroke-width="2" stroke-linecap="round" stroke-dasharray="12 8"/>
<path d="M112 53L112 153" stroke="#4DD7CB" stroke-width="2" stroke-linecap="round" stroke-dasharray="12 8"/>
</g>
<defs>
<linearGradient id="paint0_linear_2068_1919" x1="72.2777" y1="216.875" x2="48.5513" y2="235.159" gradientUnits="userSpaceOnUse">
<stop stop-color="#54FFF9"/>
<stop offset="1" stop-color="#1D57FD"/>
</linearGradient>
<linearGradient id="paint1_linear_2068_1919" x1="237.885" y1="135" x2="237.885" y2="163.77" gradientUnits="userSpaceOnUse">
<stop stop-color="white" stop-opacity="0"/>
<stop offset="1" stop-color="#56FFF9"/>
</linearGradient>
<linearGradient id="paint2_linear_2068_1919" x1="193" y1="189.32" x2="224.884" y2="189.32" gradientUnits="userSpaceOnUse">
<stop stop-color="#54FFF9"/>
<stop offset="1" stop-color="#1D57FD"/>
</linearGradient>
<linearGradient id="paint3_linear_2068_1919" x1="67" y1="117.925" x2="206" y2="117.925" gradientUnits="userSpaceOnUse">
<stop stop-color="white" stop-opacity="0"/>
<stop offset="0.533654" stop-color="#4DD7CB"/>
<stop offset="1" stop-color="white" stop-opacity="0"/>
</linearGradient>
<linearGradient id="paint4_linear_2068_1919" x1="76" y1="91.9255" x2="206" y2="91.9255" gradientUnits="userSpaceOnUse">
<stop stop-color="white" stop-opacity="0"/>
<stop offset="0.533654" stop-color="#4DD7CB"/>
<stop offset="1" stop-color="white" stop-opacity="0"/>
</linearGradient>
<linearGradient id="paint5_linear_2068_1919" x1="75" y1="143.437" x2="206" y2="143.437" gradientUnits="userSpaceOnUse">
<stop stop-color="white" stop-opacity="0"/>
<stop offset="0.533654" stop-color="#4DD7CB"/>
<stop offset="1" stop-color="white" stop-opacity="0"/>
</linearGradient>
<clipPath id="clip0_2068_1919">
<rect width="40.4524" height="33.3184" fill="white" transform="translate(36 216.875)"/>
</clipPath>
<clipPath id="clip1_2068_1919">
<rect width="54.57" height="34.65" fill="white" transform="translate(193 172)"/>
</clipPath>
<clipPath id="clip2_2068_1919">
<rect width="140" height="211" fill="white" transform="translate(67 28)"/>
</clipPath>
</defs>
</svg>
