<svg width="270" height="251" viewBox="0 0 270 251" fill="none" xmlns="http://www.w3.org/2000/svg">
<g opacity="0.3">
<path d="M117.34 229.4C117.065 229.4 116.84 228.951 116.84 228.403L116.84 90.3971C116.84 89.8486 117.065 89.3999 117.34 89.3999C117.615 89.3999 117.84 89.8486 117.84 90.3971L117.84 228.403C117.84 228.951 117.615 229.4 117.34 229.4Z" fill="white"/>
<path d="M247.848 106.4L89.8425 106.4C89.2912 106.4 88.8401 106.175 88.8401 105.9C88.8401 105.625 89.2912 105.4 89.8425 105.4L247.838 105.4C248.389 105.4 248.84 105.625 248.84 105.9C248.84 106.175 248.389 106.4 247.838 106.4H247.848Z" fill="white"/>
<path d="M211.34 200.4C211.065 200.4 210.84 199.951 210.84 199.401V90.3984C210.84 89.8492 211.065 89.3999 211.34 89.3999C211.615 89.3999 211.84 89.8492 211.84 90.3984V199.401C211.84 199.951 211.615 200.4 211.34 200.4Z" fill="white"/>
<path d="M149.34 229.4C149.065 229.4 148.84 228.951 148.84 228.403L148.84 90.3971C148.84 89.8486 149.065 89.3999 149.34 89.3999C149.615 89.3999 149.84 89.8486 149.84 90.3971L149.84 228.403C149.84 228.951 149.615 229.4 149.34 229.4Z" fill="white"/>
<path d="M181.34 200.4C181.065 200.4 180.84 199.951 180.84 199.401V90.3984C180.84 89.8492 181.065 89.3999 181.34 89.3999C181.615 89.3999 181.84 89.8492 181.84 90.3984V199.401C181.84 199.951 181.615 200.4 181.34 200.4Z" fill="white"/>
<path d="M247.848 143.4L89.8425 143.4C89.2912 143.4 88.8401 143.175 88.8401 142.9C88.8401 142.625 89.2912 142.4 89.8425 142.4L247.838 142.4C248.389 142.4 248.84 142.625 248.84 142.9C248.84 143.175 248.389 143.4 247.838 143.4H247.848Z" fill="white"/>
<path d="M247.839 179.4L57.8409 179.4C57.2905 179.4 56.8401 179.175 56.8401 178.9C56.8401 178.625 57.2905 178.4 57.8409 178.4L247.839 178.4C248.39 178.4 248.84 178.625 248.84 178.9C248.84 179.175 248.39 179.4 247.839 179.4Z" fill="white"/>
<path d="M166.841 215.4H89.8392C89.2897 215.4 88.8401 215.175 88.8401 214.9C88.8401 214.625 89.2897 214.4 89.8392 214.4H166.841C167.39 214.4 167.84 214.625 167.84 214.9C167.84 215.175 167.39 215.4 166.841 215.4Z" fill="white"/>
</g>
<g clip-path="url(#clip0_2429_35)">
<path d="M206.299 202.524H73.7595C72.0216 202.524 70.4242 201.921 69.1837 200.915C67.598 199.633 66.5916 197.696 66.5916 195.531V122.629C66.5916 120.698 67.3932 118.949 68.6922 117.685C69.9912 116.421 71.7817 115.637 73.7653 115.637H206.305C208.054 115.637 209.658 116.245 210.898 117.263C212.472 118.545 213.473 120.476 213.473 122.635V195.537C213.473 197.141 212.917 198.621 211.987 199.803C210.676 201.465 208.616 202.535 206.299 202.535V202.524Z" fill="#003AE0" stroke="#003AE0" stroke-width="1.46284" stroke-linecap="round" stroke-linejoin="round"/>
<path d="M201.267 197.62H68.7331C66.9953 197.62 65.3978 197.018 64.1573 196.011C62.5716 194.73 61.5652 192.793 61.5652 190.628V117.726C61.5652 115.795 62.3668 114.045 63.6658 112.781C64.9648 111.517 66.7554 110.733 68.739 110.733H201.278C203.028 110.733 204.631 111.342 205.872 112.36C207.446 113.642 208.446 115.572 208.446 117.732V190.634C208.446 192.237 207.891 193.718 206.96 194.9C205.649 196.561 203.59 197.632 201.273 197.632L201.267 197.62Z" fill="white" stroke="#003AE0" stroke-width="1.46284" stroke-linecap="round" stroke-linejoin="round"/>
<mask id="mask0_2429_35" style="mask-type:luminance" maskUnits="userSpaceOnUse" x="61" y="110" width="148" height="88">
<path d="M201.267 197.62H68.7331C66.9953 197.62 65.3978 197.018 64.1573 196.011C62.5716 194.73 61.5652 192.793 61.5652 190.628V117.726C61.5652 115.795 62.3668 114.045 63.6658 112.781C64.9648 111.517 66.7554 110.733 68.739 110.733H201.278C203.028 110.733 204.631 111.342 205.872 112.36C207.446 113.642 208.446 115.572 208.446 117.732V190.634C208.446 192.237 207.891 193.718 206.96 194.9C205.649 196.561 203.59 197.632 201.273 197.632L201.267 197.62Z" fill="white"/>
</mask>
<g mask="url(#mask0_2429_35)">
<path d="M214.269 105.982H55.7314V123.378H214.269V105.982Z" fill="url(#paint0_linear_2429_35)" fill-opacity="0.92" stroke="#003AE0" stroke-width="1.46284" stroke-linecap="round" stroke-linejoin="round"/>
<path d="M183.122 117.099C183.122 118.328 182.098 119.323 180.84 119.323C179.582 119.323 178.558 118.328 178.558 117.099C178.558 115.871 179.582 114.876 180.84 114.876C182.098 114.876 183.122 115.871 183.122 117.099Z" fill="url(#paint1_linear_2429_35)" fill-opacity="0.92" stroke="#003AE0" stroke-width="1.46284" stroke-linecap="round" stroke-linejoin="round"/>
<path d="M192.478 117.099C192.478 118.328 191.454 119.323 190.196 119.323C188.938 119.323 187.914 118.328 187.914 117.099C187.914 115.871 188.938 114.876 190.196 114.876C191.454 114.876 192.478 115.871 192.478 117.099Z" fill="url(#paint2_linear_2429_35)" fill-opacity="0.92" stroke="#003AE0" stroke-width="1.46284" stroke-linecap="round" stroke-linejoin="round"/>
<path d="M201.834 117.099C201.834 118.328 200.81 119.323 199.552 119.323C198.294 119.323 197.27 118.328 197.27 117.099C197.27 115.871 198.294 114.876 199.552 114.876C200.81 114.876 201.834 115.871 201.834 117.099Z" fill="url(#paint3_linear_2429_35)" fill-opacity="0.92" stroke="#003AE0" stroke-width="1.46284" stroke-linecap="round" stroke-linejoin="round"/>
</g>
<path d="M201.267 197.62H68.7331C66.9953 197.62 65.3978 197.018 64.1573 196.011C62.5716 194.73 61.5652 192.793 61.5652 190.628V117.726C61.5652 115.795 62.3668 114.045 63.6658 112.781C64.9648 111.517 66.7554 110.733 68.739 110.733H201.278C203.028 110.733 204.631 111.342 205.872 112.36C207.446 113.642 208.446 115.572 208.446 117.732V190.634C208.446 192.237 207.891 193.718 206.96 194.9C205.649 196.561 203.59 197.632 201.273 197.632L201.267 197.62Z" stroke="#003AE0" stroke-width="1.46284" stroke-linecap="round" stroke-linejoin="round"/>
<path d="M123.643 135.262H74.491V141.465H123.643V135.262Z" fill="white" stroke="#003AE0" stroke-width="1.46284" stroke-linecap="round" stroke-linejoin="round"/>
<path d="M123.643 149.072H74.491V155.274H123.643V149.072Z" fill="white" stroke="#003AE0" stroke-width="1.46284" stroke-linecap="round" stroke-linejoin="round"/>
<path d="M123.643 162.887H74.491V169.089H123.643V162.887Z" fill="white" stroke="#003AE0" stroke-width="1.46284" stroke-linecap="round" stroke-linejoin="round"/>
<path d="M107 177H74V183H107V177Z" fill="white" stroke="#003AE0" stroke-width="1.46284" stroke-linecap="round" stroke-linejoin="round"/>
<path d="M197.622 134.502H131.244V184.28H197.622V134.502Z" fill="#56FFF9" stroke="#003AE0" stroke-width="1.46284" stroke-linecap="round" stroke-linejoin="round"/>
<path d="M131.244 134.502L197.622 184.285" stroke="#003AE0" stroke-width="1.46284" stroke-linecap="round" stroke-linejoin="round"/>
<path d="M197.622 134.502L131.244 184.285" stroke="#003AE0" stroke-width="1.46284" stroke-linecap="round" stroke-linejoin="round"/>
</g>
<g clip-path="url(#clip1_2429_35)">
<path d="M157.388 59.2262V87.8288C157.388 89.1004 156.973 90.2792 156.278 91.2182C155.28 92.5681 153.696 93.4387 151.915 93.4387H27.3661C25.8548 93.4387 24.4853 92.8127 23.4924 91.7954C22.4996 90.778 21.8882 89.3743 21.8882 87.8288V59.2262C21.8882 57.6757 22.4996 56.272 23.4924 55.2596C24.4853 54.2423 25.8499 53.6162 27.3661 53.6162H151.911C153.422 53.6162 154.791 54.2423 155.784 55.2596C156.777 56.2769 157.388 57.6806 157.388 59.2262Z" fill="#003AE0" stroke="#003AE0" stroke-width="1.22275" stroke-linecap="round" stroke-linejoin="round"/>
<path d="M154.112 62.5865V91.1891C154.112 92.4608 153.696 93.6395 153.001 94.5786C152.004 95.9285 150.419 96.7991 148.639 96.7991H24.0892C22.5779 96.7991 21.2084 96.173 20.2156 95.1557C19.2227 94.1384 18.6113 92.7347 18.6113 91.1891V62.5865C18.6113 61.0361 19.2227 59.6324 20.2156 58.6199C21.2084 57.6026 22.573 56.9766 24.0892 56.9766H148.634C150.145 56.9766 151.514 57.6026 152.507 58.6199C153.5 59.6373 154.112 61.041 154.112 62.5865Z" fill="white" stroke="#003AE0" stroke-width="1.22275" stroke-linecap="round" stroke-linejoin="round"/>
<path d="M52.7261 96.7991V56.9717" stroke="#003AE0" stroke-width="1.22275" stroke-linecap="round" stroke-linejoin="round"/>
<path d="M86.8359 96.7991V56.9717" stroke="#003AE0" stroke-width="1.22275" stroke-linecap="round" stroke-linejoin="round"/>
<path d="M120.271 96.7991V56.9717" stroke="#003AE0" stroke-width="1.22275" stroke-linecap="round" stroke-linejoin="round"/>
<path d="M37.2998 72.603L28.2074 83.6078C27.6156 84.3219 27.4591 85.2414 27.7085 86.0533C27.7574 86.2098 27.8259 86.3614 27.9041 86.513C27.4591 87.1831 26.8086 88.352 27.4004 88.7189C27.9433 89.0564 28.7552 88.3031 29.2736 87.7162C29.6942 87.8825 30.1393 87.951 30.5795 87.9021C31.274 87.8238 31.9441 87.4863 32.4136 86.9043L41.2712 76.0365L37.2949 72.6079L37.2998 72.603Z" fill="white" stroke="#003AE0" stroke-width="1.22275" stroke-linecap="round" stroke-linejoin="round"/>
<path d="M39.5154 69.6539C39.5154 69.6539 43.3891 63.1342 46.265 65.4623C49.5566 68.123 43.6581 73.4493 43.6581 73.4493L39.5105 69.6588L39.5154 69.6539Z" fill="#ABD9FF" stroke="#003AE0" stroke-width="1.22275" stroke-linecap="round" stroke-linejoin="round"/>
<path d="M36.7618 72.0993L41.8534 76.3985C42.5919 77.0197 43.5652 77.2055 44.4505 76.9756C44.9787 76.8387 45.4776 76.5501 45.8689 76.1148C46.3531 75.5817 46.5928 74.9214 46.6025 74.266C46.6123 73.4786 46.2846 72.696 45.6341 72.1433L40.5622 67.8148C39.8481 67.2083 38.909 67.0127 38.0482 67.2083C37.4613 67.3404 36.9086 67.6534 36.4879 68.1425L36.4684 68.167C36.0869 68.6071 35.8668 69.1305 35.7983 69.6636C35.6907 70.5538 36.0184 71.4684 36.757 72.0944L36.7618 72.0993Z" fill="#ABD9FF" stroke="#003AE0" stroke-width="1.22275" stroke-linecap="round" stroke-linejoin="round"/>
<path d="M78.702 86.3423L72.9795 68.001H74.0262V65.937H64.5719V68.001H65.7115L59.901 86.3423H57.6462V88.4063H67.1005V86.3423H65.6528L66.8805 80.9866L71.5024 81.016L72.7643 86.3423H70.9204V88.4063H80.3747V86.3423H78.702ZM67.4625 76.6825L68.5238 72.3247H69.7466L70.9155 76.6825H67.4625Z" fill="#FFD8A4" stroke="#003AE0" stroke-width="1.22275" stroke-linecap="round" stroke-linejoin="round"/>
<path d="M106.444 67.1006L94.8081 82.517L101.372 87.2955L113.042 71.928L106.444 67.1006Z" fill="#FFB6D0" stroke="#003AE0" stroke-width="1.22275" stroke-linecap="round" stroke-linejoin="round"/>
<path d="M106.444 67.1009L108.082 64.9586C108.258 64.7287 108.474 64.5429 108.708 64.4059C109.418 63.9951 110.337 64.0098 111.032 64.5184L114.284 66.8808C114.749 67.2183 115.028 67.7123 115.106 68.2356C115.179 68.7589 115.052 69.3116 114.7 69.7714L113.047 71.9332L106.444 67.1009Z" fill="white" stroke="#003AE0" stroke-width="1.22275" stroke-linecap="round" stroke-linejoin="round"/>
<path d="M94.8082 82.5171L93.38 89.4623C93.3066 89.8194 93.4534 90.1373 93.7028 90.3231C93.9523 90.5139 94.3044 90.5775 94.637 90.421L101.367 87.2907L94.8033 82.5122L94.8082 82.5171Z" fill="white" stroke="#003AE0" stroke-width="1.22275" stroke-linecap="round" stroke-linejoin="round"/>
<path d="M96.7108 89.4577L93.874 87.0415L93.3311 89.5799C93.2578 89.9223 93.3947 90.2255 93.6295 90.4163C93.8789 90.6168 94.2457 90.6853 94.5832 90.519L96.7108 89.4626V89.4577Z" fill="#FFB6D0" stroke="#003AE0" stroke-width="1.22275" stroke-linecap="round" stroke-linejoin="round"/>
<path d="M127.725 68.1425V85.3931H144.55V68.1425H127.725Z" fill="white" stroke="#003AE0" stroke-width="1.22275" stroke-linecap="round" stroke-linejoin="round"/>
<path d="M125.792 83.0157V87.623H130.287V83.0157H125.792Z" fill="#ABD9FF" stroke="#003AE0" stroke-width="1.22275" stroke-linecap="round" stroke-linejoin="round"/>
<path d="M125.788 65.8439V70.4512H130.282V65.8439H125.788Z" fill="#ABD9FF" stroke="#003AE0" stroke-width="1.22275" stroke-linecap="round" stroke-linejoin="round"/>
<path d="M141.889 83.0157V87.623H146.384V83.0157H141.889Z" fill="#ABD9FF" stroke="#003AE0" stroke-width="1.22275" stroke-linecap="round" stroke-linejoin="round"/>
<path d="M141.889 65.8438V70.4512H146.384V65.8438H141.889Z" fill="#ABD9FF" stroke="#003AE0" stroke-width="1.22275" stroke-linecap="round" stroke-linejoin="round"/>
</g>
<path d="M22.6932 135.853L28 134.004L22.4922 132.082C21.5193 131.745 20.7554 130.981 20.4177 130.008L18.504 124.5L16.5823 130.008C16.2446 130.981 15.4807 131.745 14.5078 132.082L9 134.004L14.3068 135.853C15.4084 136.239 16.2687 137.1 16.6466 138.193L18.496 143.5L20.3453 138.193C20.7313 137.092 21.5916 136.231 22.6851 135.853H22.6932Z" fill="#56FFF9"/>
<path d="M247.738 64.5362L255 62.0055L247.463 59.3758C246.132 58.9137 245.086 57.8684 244.624 56.537L242.006 49L239.376 56.537C238.914 57.8684 237.868 58.9137 236.537 59.3758L229 62.0055L236.262 64.5362C237.769 65.0643 238.947 66.2416 239.464 67.738L241.994 75L244.525 67.738C245.053 66.2306 246.231 65.0533 247.727 64.5362H247.738Z" fill="url(#paint4_linear_2429_35)"/>
<g clip-path="url(#clip2_2429_35)">
<path d="M198 80L244.6 88.21L234.05 114.64L198 80Z" fill="url(#paint5_linear_2429_35)" fill-opacity="0.92"/>
<path d="M244.6 88.21L252.57 110.44L234.05 114.65L244.6 88.21Z" fill="#0042FF"/>
</g>
<g clip-path="url(#clip3_2429_35)">
<path d="M44.5099 161L27.5299 191.11L12.1799 176.42L44.5099 161Z" fill="url(#paint6_linear_2429_35)" fill-opacity="0.92"/>
<path d="M27.52 191.11L10.5 190.47L12.18 176.42L27.52 191.11Z" fill="#0042FF"/>
</g>
<defs>
<linearGradient id="paint0_linear_2429_35" x1="55.7314" y1="114.68" x2="164.204" y2="114.68" gradientUnits="userSpaceOnUse">
<stop stop-color="#54FFF9"/>
<stop offset="1" stop-color="#1D57FD"/>
</linearGradient>
<linearGradient id="paint1_linear_2429_35" x1="178.558" y1="117.099" x2="181.68" y2="117.099" gradientUnits="userSpaceOnUse">
<stop stop-color="#54FFF9"/>
<stop offset="1" stop-color="#1D57FD"/>
</linearGradient>
<linearGradient id="paint2_linear_2429_35" x1="187.914" y1="117.099" x2="191.037" y2="117.099" gradientUnits="userSpaceOnUse">
<stop stop-color="#54FFF9"/>
<stop offset="1" stop-color="#1D57FD"/>
</linearGradient>
<linearGradient id="paint3_linear_2429_35" x1="197.27" y1="117.099" x2="200.393" y2="117.099" gradientUnits="userSpaceOnUse">
<stop stop-color="#54FFF9"/>
<stop offset="1" stop-color="#1D57FD"/>
</linearGradient>
<linearGradient id="paint4_linear_2429_35" x1="242" y1="49" x2="242" y2="75" gradientUnits="userSpaceOnUse">
<stop stop-color="white" stop-opacity="0"/>
<stop offset="1" stop-color="#56FFF9"/>
</linearGradient>
<linearGradient id="paint5_linear_2429_35" x1="198" y1="97.32" x2="229.884" y2="97.32" gradientUnits="userSpaceOnUse">
<stop stop-color="#54FFF9"/>
<stop offset="1" stop-color="#1D57FD"/>
</linearGradient>
<linearGradient id="paint6_linear_2429_35" x1="41" y1="161" x2="20" y2="176.055" gradientUnits="userSpaceOnUse">
<stop stop-color="#54FFF9"/>
<stop offset="1" stop-color="#1D57FD"/>
</linearGradient>
<clipPath id="clip0_2429_35">
<rect width="160" height="98.0047" fill="white" transform="translate(55 105.25)"/>
</clipPath>
<clipPath id="clip1_2429_35">
<rect width="140" height="44.4103" fill="white" transform="translate(18 53)"/>
</clipPath>
<clipPath id="clip2_2429_35">
<rect width="54.57" height="34.65" fill="white" transform="translate(198 80)"/>
</clipPath>
<clipPath id="clip3_2429_35">
<rect width="34.01" height="30.11" fill="white" transform="translate(10.5 161)"/>
</clipPath>
</defs>
</svg>
