<svg width="53" height="44" viewBox="0 0 53 44" fill="none" xmlns="http://www.w3.org/2000/svg">
<path d="M33.9682 43.9999C23.2468 43.9999 14.5537 35.3068 14.5537 24.5854C25.275 24.5854 33.9682 33.2786 33.9682 43.9999Z" fill="#0042FF"/>
<path d="M33.9682 0C33.9682 10.7213 25.275 19.4087 14.5537 19.4087C14.5537 8.69313 23.2468 0 33.9682 0Z" fill="#0042FF"/>
<path d="M0 22.0001C0 15.9966 1.25012 10.272 3.50348 5.08921C4.26267 3.34326 6.29339 2.54355 8.03939 3.30268C9.78542 4.06183 10.5856 6.09255 9.82648 7.83858C7.94302 12.1706 6.89475 16.9605 6.89475 22.0001C6.89475 27.042 7.93801 31.8305 9.82479 36.1582C10.5857 37.9035 9.788 39.9354 8.04275 40.6964C6.29749 41.4573 4.26553 40.659 3.50461 38.9138C1.24321 33.7269 3.02737e-06 28.0011 0 22.0001Z" fill="#0042FF"/>
<path d="M49.51 20.9888C44.8043 18.9433 41.3742 14.7547 40.4089 9.70435C39.4437 14.7547 36.0078 18.9433 31.3078 20.9888C30.3943 21.3852 28.1133 22 28.1133 22C28.1133 22 30.3943 22.6148 31.3078 23.0112C36.0135 25.0567 39.4437 29.2452 40.4089 34.2956C41.3742 29.2452 44.8101 25.0567 49.51 23.0112C50.4235 22.6148 52.7046 22 52.7046 22C52.7046 22 50.4235 21.3852 49.51 20.9888Z" fill="#0042FF"/>
</svg>
